#!OML:ASF H:\Terrain\Patient Classification 1\Animal2\Wednesday\Animal2.ASF
:FULLY-SPECIFIED
:DEGREES
973
root 11.2855 16.5886 -3.22653 -4.51603 42.138 11.8396
lowerback 8.74096 7.65769 11.1282
upperback 1.60888 11.2067 -0.318978
thorax -0.970788 5.61956 -7.30096
lowerneck 13.0242 12.5454 17.5988
upperneck -13.9238 17.65 -27.4254
head -1.85951 10.0839 -12.084
rclavicle -1.47101e-014 4.6118e-014
rhumerus -31.7977 6.05343 -90.1816
rradius 114.787
rwrist -15.5251
rhand -20.3192 5.09962
rfingers 7.12502
rthumb 6.03164 -24.7945
lclavicle -1.47101e-014 4.6118e-014
lhumerus -59.8049 17.1596 40.4874
lradius 117.555
lwrist -4.87324
lhand -4.63286 29.9416
lfingers 7.12502
lthumb 21.1461 58.8084
rfemur -1.13017 -5.84356 10.475
rtibia 52.6066
rfoot -37.1971 -20.6061
rtoes 9.96687
lfemur -29.0615 -17.2962 -6.2336
ltibia 39.9323
lfoot 5.79105 -15.5864
ltoes -23.0195
974
root 11.2748 16.5972 -3.23684 -4.44172 42.6244 11.8687
lowerback 8.63008 7.82339 11.389
upperback 1.53084 11.4393 -0.38177
thorax -0.881325 5.73867 -7.49097
lowerneck 13.4062 12.3659 18.1667
upperneck -14.1553 17.5152 -27.8476
head -1.91438 10.0511 -12.3858
rclavicle -1.19271e-014 2.38542e-014
rhumerus -31.6875 5.74169 -90.3819
rradius 114.967
rwrist -15.4136
rhand -19.8793 5.04626
rfingers 7.12502
rthumb 6.45629 -24.8353
lclavicle -1.19271e-014 2.38542e-014
lhumerus -60.5016 17.4761 39.1329
lradius 117.707
lwrist -4.05129
lhand -6.55202 30.6335
lfingers 7.12502
lthumb 19.3016 59.6956
rfemur -1.01038 -5.81963 10.6371
rtibia 52.4586
rfoot -37.2165 -20.7394
rtoes 10.5938
lfemur -29.4809 -17.5698 -6.32936
ltibia 39.9395
lfoot 6.44122 -15.7962
ltoes -21.3467
975
root 11.2671 16.5979 -3.25079 -4.74221 42.9817 11.6219
lowerback 8.67644 7.9064 11.8644
upperback 1.57683 11.5966 -0.309747
thorax -0.746491 5.82773 -7.66477
lowerneck 14.0119 12.2389 18.5092
upperneck -14.7359 17.394 -28.4769
head -2.10095 10.0737 -12.7779
rclavicle 6.04305e-014 2.62396e-014
rhumerus -31.3741 5.79591 -90.341
rradius 115.062
rwrist -15.448
rhand -19.8298 5.10255
rfingers 7.12502
rthumb 6.50416 -24.7776
lclavicle 6.04305e-014 2.62396e-014
lhumerus -61.3439 17.7472 38.0184
lradius 117.998
lwrist -3.02819
lhand -9.00444 31.7138
lfingers 7.12502
lthumb 16.9422 60.9949
rfemur -0.717897 -5.71812 10.9979
rtibia 52.3275
rfoot -37.161 -20.7753
rtoes 11.742
lfemur -29.6828 -17.7925 -6.26235
ltibia 39.9408
lfoot 7.418 -15.9388
ltoes -19.5675
976
root 11.2607 16.5998 -3.26766 -4.65573 43.213 11.7709
lowerback 8.67796 7.95342 11.9932
upperback 1.56734 11.6712 -0.30789
thorax -0.716164 5.8666 -7.73014
lowerneck 14.1633 12.3 18.5162
upperneck -14.8038 17.4967 -28.6403
head -2.10067 10.1497 -12.8462
rclavicle -3.33958e-014 -4.6118e-014
rhumerus -31.1157 6.12579 -90.3835
rradius 115.118
rwrist -15.4149
rhand -20.2122 5.38986
rfingers 7.12502
rthumb 6.13496 -24.5013
lclavicle -3.33958e-014 -4.6118e-014
lhumerus -62.5811 18.0319 35.9885
lradius 117.864
lwrist -3.22288
lhand -9.21071 30.5527
lfingers 7.12502
lthumb 16.7436 59.8507
rfemur -0.711011 -5.62758 10.9577
rtibia 52.2568
rfoot -36.8813 -21.2031
rtoes 11.5383
lfemur -29.927 -17.8492 -6.50456
ltibia 39.9048
lfoot 8.5712 -16.0747
ltoes -17.2336
977
root 11.2537 16.6081 -3.28067 -4.23038 43.4458 12.2375
lowerback 8.60113 8.0445 11.8901
upperback 1.48142 11.7753 -0.4553
thorax -0.731456 5.91546 -7.82445
lowerneck 13.989 12.4389 18.2985
upperneck -14.5778 17.6722 -28.1754
head -2.04279 10.1913 -12.5947
rclavicle 1.74931e-014 -3.18055e-014
rhumerus -31.0745 6.07273 -90.6084
rradius 115.288
rwrist -15.2962
rhand -20.1706 5.68823
rfingers 7.12502
rthumb 6.1751 -24.2018
lclavicle 1.74931e-014 -3.18055e-014
lhumerus -63.7089 19.2524 34.1113
lradius 117.731
lwrist -3.84756
lhand -9.48008 30.3455
lfingers 7.12502
lthumb 16.4843 59.6652
rfemur -0.843737 -5.6412 10.6246
rtibia 52.2519
rfoot -36.6242 -21.6074
rtoes 10.9676
lfemur -30.2575 -17.8779 -6.9728
ltibia 39.8407
lfoot 9.42326 -16.3186
ltoes -16.6755
978
root 11.2472 16.6187 -3.29128 -4.07215 43.6821 12.5396
lowerback 8.57247 8.15631 11.9008
upperback 1.5313 11.9181 -0.489936
thorax -0.62173 5.99747 -7.85371
lowerneck 13.7957 12.5916 17.6632
upperneck -14.5891 17.7564 -27.5072
head -2.13795 10.194 -12.2404
rclavicle 4.9895e-014 -1.19271e-014
rhumerus -30.9167 5.86554 -90.5578
rradius 115.508
rwrist -15.4018
rhand -19.7674 5.40779
rfingers 7.12502
rthumb 6.56439 -24.4705
lclavicle 4.9895e-014 -1.19271e-014
lhumerus -64.4542 19.5383 33.546
lradius 118.15
lwrist -3.13441
lhand -12.627 32.356
lfingers 7.12502
lthumb 13.4528 61.9015
rfemur -0.756909 -5.65208 10.4282
rtibia 52.2832
rfoot -36.7466 -21.5575
rtoes 10.9474
lfemur -30.3778 -18.008 -7.33125
ltibia 39.7448
lfoot 10.2393 -16.6075
ltoes -16.1873
979
root 11.2431 16.6164 -3.30426 -4.10222 43.8644 12.6548
lowerback 8.69026 8.27282 12.0185
upperback 1.49831 12.1012 -0.457164
thorax -0.664934 6.08403 -7.90381
lowerneck 13.9228 12.6213 17.3817
upperneck -14.6593 17.7634 -27.2629
head -2.23641 10.1975 -12.1348
rclavicle 2.90226e-014 -2.38542e-015
rhumerus -30.9613 5.65357 -90.4314
rradius 115.676
rwrist -15.451
rhand -19.8326 4.93171
rfingers 7.12502
rthumb 6.50143 -24.9485
lclavicle 2.90226e-014 -2.38542e-015
lhumerus -65.1775 19.0975 33.369
lradius 118.723
lwrist -2.01087
lhand -16.1213 34.6864
lfingers 7.12502
lthumb 10.0831 64.4249
rfemur -0.67031 -5.64705 10.346
rtibia 52.3521
rfoot -36.5788 -21.61
rtoes 10.7802
lfemur -30.3879 -18.1345 -7.53671
ltibia 39.6327
lfoot 11.0431 -16.767
ltoes -13.8385
980
root 11.2397 16.6067 -3.31573 -3.98318 44.063 12.8655
lowerback 8.86949 8.39115 12.103
upperback 1.26971 12.3012 -0.553749
thorax -0.923915 6.15594 -8.10452
lowerneck 14.3487 12.4683 17.8112
upperneck -14.6024 17.6966 -27.3679
head -2.25357 10.1727 -12.2844
rclavicle -3.12092e-014 8.74653e-015
rhumerus -31.3882 5.15699 -90.5344
rradius 115.934
rwrist -15.2878
rhand -19.945 4.71403
rfingers 7.12502
rthumb 6.39293 -25.1695
lclavicle -3.12092e-014 8.74653e-015
lhumerus -66.1017 18.8592 31.707
lradius 118.627
lwrist -2.84585
lhand -15.357 34.0078
lfingers 7.12502
lthumb 10.8205 63.7091
rfemur -0.7201 -5.70623 10.1582
rtibia 52.4497
rfoot -36.2031 -21.8072
rtoes 10.7369
lfemur -30.467 -18.2424 -7.78291
ltibia 39.5016
lfoot 11.4781 -16.9039
ltoes -13.8039
981
root 11.2364 16.6006 -3.32228 -3.86022 44.249 13.0702
lowerback 8.87307 8.48381 12.1572
upperback 1.1785 12.4338 -0.623445
thorax -0.966341 6.21562 -8.21417
lowerneck 14.5999 12.3021 18.0751
upperneck -14.6037 17.5487 -27.4542
head -2.29573 10.107 -12.3974
rclavicle 2.26615e-014 -2.38542e-014
rhumerus -31.6477 4.67755 -90.6042
rradius 116.244
rwrist -15.1053
rhand -19.7749 4.78569
rfingers 7.12502
rthumb 6.55711 -25.0928
lclavicle 2.26615e-014 -2.38542e-014
lhumerus -66.7447 18.5643 31.1818
lradius 118.887
lwrist -2.31716
lhand -17.5735 35.3347
lfingers 7.12502
lthumb 8.68193 65.1362
rfemur -0.752348 -5.72346 10.0152
rtibia 52.5543
rfoot -36.0845 -22.0114
rtoes 10.3306
lfemur -30.4953 -18.3718 -7.97372
ltibia 39.3385
lfoot 12.0461 -16.9603
ltoes -14.9153
